:FULLY-SPECIFIED
:FORCE-ALL-JOINTS-BE-3DOF
:DEGREES
243
root 9.24816 16.3788 -2.55447 9.5457 -5.11352 -2.04364
lfemur -43.2154 8.74205 -23.1029
ltibia 40.3709 -0 0
lfoot -8.74939 5.91462 -0.0324027
ltoes -2.25795 0 0
rfemur 9.39894 1.64127 20.8228
rtibia 28.9426 -0 0
rfoot 6.87886 4.85492 0.00617621
rtoes -14.7782 0 0
lowerback -6.35809 2.05115 -0.395803
upperback -2.83608 2.72722 1.9113
thorax 0.526739 1.38069 2.36724
lowerneck -18.2737 -5.9328 -14.0025
upperneck 17.2176 -7.48429 14.6288
head 9.57095 -2.92991 6.43567
lclavicle -1.94623e-14 -5.56597e-15 0
lhumerus -46.0914 -5.31359 88.972
lradius 20.7016 -0 0
lwrist -5.69488 0 0
lhand -7.82841 -22.7069 0.00516641
lfingers 7.12502 -0 0
lthumb 18.0735 6.46788 0.00364299
rclavicle -1.94623e-14 -5.56597e-15 0
rhumerus -45.7437 8.56912 -86.2631
rradius 41.704 -0 0
rwrist -22.4302 0 0
rhand -29.546 -23.1623 0.0202695
rfingers 7.12502 -0 0
rthumb -2.87898 -53.1194 0.0193265
244
root 9.27502 16.3738 -2.39094 9.60015 -5.29866 -1.98248
lfemur -43.2539 8.94558 -23.3055
ltibia 40.803 -0 0
lfoot -8.5824 5.76457 -0.0249578
ltoes -1.86007 0 0
rfemur 9.59967 1.57211 20.556
rtibia 29.4056 -0 0
rfoot 7.54968 4.86197 0.0047555
rtoes -14.9274 0 0
lowerback -6.36489 2.05182 -0.465851
upperback -2.89447 2.73396 1.87022
thorax 0.468972 1.38471 2.36339
lowerneck -18.3237 -5.91252 -13.9901
upperneck 17.2825 -7.45751 14.6179
head 9.59669 -2.91557 6.4351
lclavicle -1.94623e-14 -5.56597e-15 0
lhumerus -46.0073 -5.17636 88.7853
lradius 20.5153 -0 0
lwrist -6.09668 0 0
lhand -7.71174 -22.6726 0.00397948
lfingers 7.12502 -0 0
lthumb 18.1859 6.49298 0.00280606
rclavicle -1.94623e-14 -5.56597e-15 0
rhumerus -46.0103 8.48863 -86.3979
rradius 41.4183 -0 0
rwrist -22.3051 0 0
rhand -29.4474 -23.0032 0.0156125
rfingers 7.12502 -0 0
rthumb -2.7838 -52.9624 0.0148862
245
root 9.30188 16.3687 -2.22741 9.6544 -5.48386 -1.92147
lfemur -43.2932 9.14897 -23.5084
ltibia 41.2351 -0 0
lfoot -8.41544 5.61455 -0.0170756
ltoes -1.46218 0 0
rfemur 9.8007 1.50389 20.2889
rtibia 29.8685 -0 0
rfoot 8.2205 4.86899 0.00325242
rtoes -15.0766 0 0
lowerback -6.37169 2.05248 -0.5359
upperback -2.95286 2.74065 1.82913
thorax 0.411204 1.38872 2.35954
lowerneck -18.3737 -5.89223 -13.9777
upperneck 17.3473 -7.43071 14.607
head 9.62243 -2.90122 6.43453
lclavicle -1.94623e-14 -5.56597e-15 0
lhumerus -45.9237 -5.03886 88.599
lradius 20.3291 -0 0
lwrist -6.49848 0 0
lhand -7.59507 -22.6383 0.00272276
lfingers 7.12502 -0 0
lthumb 18.2982 6.51808 0.00191991
rclavicle -1.94623e-14 -5.56597e-15 0
rhumerus -46.2767 8.40753 -86.5324
rradius 41.1325 -0 0
rwrist -22.18 0 0
rhand -29.3489 -22.8442 0.0106819
rfingers 7.12502 -0 0
rthumb -2.68863 -52.8053 0.010185
246
root 9.32874 16.3637 -2.06389 9.70848 -5.66912 -1.86062
lfemur -43.3332 9.35222 -23.7115
ltibia 41.6671 -0 0
lfoot -8.2485 5.46455 -0.00875628
ltoes -1.06429 0 0
rfemur 10.002 1.4366 20.0216
rtibia 30.3315 -0 0
rfoot 8.89131 4.876 0.00166718
rtoes -15.2259 0 0
lowerback -6.37849 2.05313 -0.605948
upperback -3.01126 2.7473 1.78803
thorax 0.353436 1.39273 2.35569
lowerneck -18.4237 -5.87192 -13.9653
upperneck 17.4122 -7.40391 14.5961
head 9.64818 -2.88687 6.43397
lclavicle -1.94623e-14 -5.56597e-15 0
lhumerus -45.8406 -4.90108 88.4128
lradius 20.1428 -0 0
lwrist -6.90027 0 0
lhand -7.4784 -22.6041 0.00139627
lfingers 7.12502 -0 0
lthumb 18.4106 6.54318 0.000984557
rclavicle -1.94623e-14 -5.56597e-15 0
rhumerus -46.5429 8.32581 -86.6664
rradius 40.8468 -0 0
rwrist -22.0548 0 0
rhand -29.2503 -22.6851 0.00547771
rfingers 7.12502 -0 0
rthumb -2.59347 -52.6482 0.00522291
247
root 9.3556 16.3586 -1.90036 9.76238 -5.85443 -1.79992
lfemur -43.374 9.55533 -23.9149
ltibia 42.0992 0 0
lfoot -8.08158 5.31458 0
ltoes -0.666402 0 0
rfemur 10.2037 1.37025 19.7541
rtibia 30.7944 0 0
rfoot 9.56213 4.88299 0
rtoes -15.3751 0 0
lowerback -6.38529 2.05378 -0.675997
upperback -3.06967 2.75391 1.74692
thorax 0.295667 1.39674 2.35183
lowerneck -18.4737 -5.85161 -13.953
upperneck 17.477 -7.37709 14.5853
head 9.67392 -2.87252 6.43342
lclavicle -1.94623e-14 -5.56597e-15 0
lhumerus -45.758 -4.76304 88.2269
lradius 19.9566 0 0
lwrist -7.30207 0 0
lhand -7.36173 -22.5698 0
lfingers 7.12502 0 0
lthumb 18.5229 6.56827 0
rclavicle -1.94623e-14 -5.56597e-15 0
rhumerus -46.8088 8.24347 -86.8
rradius 40.5611 0 0
rwrist -21.9297 0 0
rhand -29.1518 -22.5261 0
rfingers 7.12502 0 0
rthumb -2.49833 -52.4912 0
248
root 9.37276 16.371 -1.77047 9.64619 -5.70118 -1.67097
lfemur -42.459 9.40671 -24.0113
ltibia 41.5966 -0 0
lfoot -8.35344 5.30101 0.00129142
ltoes -0.769308 0 0
rfemur 9.08286 1.36377 19.6532
rtibia 31.1975 -0 0
rfoot 8.82162 4.47018 0.109992
rtoes -15.5851 0 0
lowerback -6.36156 1.92149 -0.76555
upperback -2.99734 2.58339 1.75995
thorax 0.370038 1.31018 2.40138
lowerneck -18.5556 -5.80202 -13.8909
upperneck 17.6097 -7.30894 14.5001
head 9.72064 -2.84199 6.408
lclavicle 3.13086e-14 9.54166e-15 0
lhumerus -44.9687 -5.09865 88.2738
lradius 20.1038 -0 0
lwrist -7.04534 0 0
lhand -7.57626 -22.6175 0.00357605
lfingers 7.12502 -0 0
lthumb 18.3162 6.53526 0.00238581
rclavicle 3.13086e-14 9.54166e-15 0
rhumerus -46.8138 8.22717 -86.704
rradius 40.5723 -0 0
rwrist -21.9594 0 0
rhand -29.1655 -22.4978 -0.000135273
rfingers 7.12502 -0 0
rthumb -2.51154 -52.4627 -0.000131411
249
root 9.38992 16.3834 -1.64057 9.53037 -5.54768 -1.54236
lfemur -41.5442 9.25963 -24.1101
ltibia 41.0939 -0 0
lfoot -8.6253 5.28744 0.00251845
ltoes -0.872213 0 0
rfemur 7.96204 1.35531 19.5524
rtibia 31.6005 -0 0
rfoot 8.08033 4.05598 0.214636
rtoes -15.7951 0 0
lowerback -6.33762 1.78924 -0.855151
upperback -2.92506 2.41285 1.77275
thorax 0.444333 1.22355 2.45081
lowerneck -18.6375 -5.75234 -13.8289
upperneck 17.7424 -7.2406 14.415
head 9.76735 -2.81145 6.3826
lclavicle 3.13086e-14 9.54166e-15 0
lhumerus -44.1792 -5.43487 88.3161
lradius 20.2511 -0 0
lwrist -6.78861 0 0
lhand -7.7908 -22.6651 0.00697362
lfingers 7.12502 -0 0
lthumb 18.1095 6.50225 0.00465253
rclavicle 3.13086e-14 9.54166e-15 0
rhumerus -46.8189 8.21088 -86.608
rradius 40.5834 -0 0
rwrist -21.989 0 0
rhand -29.1792 -22.4695 -0.000263782
rfingers 7.12502 -0 0
rthumb -2.52475 -52.4342 -0.000256252
250
root 9.40708 16.3958 -1.51068 9.41493 -5.39392 -1.4141
lfemur -40.6295 9.11412 -24.2112
ltibia 40.5913 -0 0
lfoot -8.89716 5.27386 0.00368106
ltoes -0.975119 0 0
rfemur 6.84123 1.34489 19.4518
rtibia 32.0036 -0 0
rfoot 7.3383 3.64046 0.313911
rtoes -16.0051 0 0
lowerback -6.31348 1.65703 -0.944801
upperback -2.85283 2.2423 1.78534
thorax 0.51855 1.13686 2.50013
lowerneck -18.7193 -5.70257 -13.767
upperneck 17.8749 -7.17206 14.3301
head 9.81405 -2.78088 6.35723
lclavicle 3.13086e-14 9.54166e-15 0
lhumerus -43.3895 -5.77164 88.3537
lradius 20.3983 -0 0
lwrist -6.53188 0 0
lhand -8.00534 -22.7128 0.0101927
lfingers 7.12502 -0 0
lthumb 17.9028 6.46923 0.00680013
rclavicle 3.13086e-14 9.54166e-15 0
rhumerus -46.824 8.1946 -86.512
rradius 40.5946 -0 0
rwrist -22.0187 0 0
rhand -29.1928 -22.4411 -0.000385528
rfingers 7.12502 -0 0
rthumb -2.53797 -52.4057 -0.000374522
